<svg width="109" height="37" viewBox="0 0 109 37" fill="none" xmlns="http://www.w3.org/2000/svg">
<path d="M6.50098 14.3575L3.6379 10.6023C3.49959 10.4225 3.43043 10.2012 3.43043 9.93843C3.43043 9.7033 3.49959 9.49583 3.6379 9.31602L6.12754 5.99651C6.43183 5.56774 6.80527 5.35335 7.24787 5.35335C7.59366 5.35335 7.87028 5.45708 8.07775 5.66455C8.28522 5.87202 8.38896 6.13482 8.38896 6.45294C8.38896 6.72957 8.29905 6.97853 8.11925 7.19983L6.00306 9.77246L8.55493 13.0505C8.74857 13.3271 8.84539 13.5899 8.84539 13.8389C8.84539 14.1708 8.72782 14.4474 8.49269 14.6687C8.27139 14.89 7.99476 15.0007 7.66281 15.0007C7.19255 15.0007 6.80527 14.7863 6.50098 14.3575ZM3.11923 1.47367V13.8389C3.11923 14.157 3.00166 14.4336 2.76653 14.6687C2.54523 14.89 2.2686 15.0007 1.93665 15.0007C1.59087 15.0007 1.30041 14.89 1.06528 14.6687C0.843974 14.4336 0.733324 14.157 0.733324 13.8389V1.47367C0.733324 1.15554 0.843974 0.885834 1.06528 0.664534C1.30041 0.429401 1.59087 0.311835 1.93665 0.311835C2.2686 0.311835 2.54523 0.429401 2.76653 0.664534C3.00166 0.885834 3.11923 1.15554 3.11923 1.47367ZM17.0434 11.7019V6.51518C17.0434 6.19706 17.154 5.92735 17.3753 5.70605C17.6104 5.47092 17.9009 5.35335 18.2467 5.35335C18.5786 5.35335 18.8553 5.47092 19.0766 5.70605C19.3117 5.92735 19.4293 6.19706 19.4293 6.51518V13.8389C19.4293 14.157 19.3117 14.4336 19.0766 14.6687C18.8553 14.89 18.5717 15.0007 18.2259 15.0007C17.8802 15.0007 17.5966 14.8831 17.3753 14.648C17.154 14.4129 17.0434 14.0947 17.0434 13.6936C16.2965 14.6065 15.3006 15.0629 14.0558 15.0629C13.0599 15.0629 12.2646 14.731 11.6699 14.0671C11.0752 13.4032 10.7778 12.4488 10.7778 11.204V6.51518C10.7778 6.19706 10.8884 5.92735 11.1097 5.70605C11.3449 5.47092 11.6353 5.35335 11.9811 5.35335C12.3131 5.35335 12.5897 5.47092 12.811 5.70605C13.0461 5.92735 13.1637 6.19706 13.1637 6.51518V10.7061C13.1637 12.1307 13.7584 12.843 14.9479 12.843C15.764 12.843 16.4624 12.4626 17.0434 11.7019ZM28.8309 14.8347H22.7728C22.2472 14.8347 21.8945 14.6134 21.7147 14.1708C21.5349 13.7282 21.6801 13.2303 22.1504 12.677L26.611 7.73925H23.0425C22.7382 7.73925 22.4754 7.6286 22.2541 7.4073C22.0466 7.186 21.9429 6.9232 21.9429 6.61891C21.9429 6.31463 22.0466 6.05183 22.2541 5.83053C22.4754 5.60923 22.7382 5.49858 23.0425 5.49858H28.8516C29.1974 5.49858 29.474 5.60231 29.6815 5.80978C29.889 6.01725 29.9927 6.28005 29.9927 6.59817C29.9927 6.94395 29.8267 7.29665 29.4948 7.65626L25.0342 12.6148H28.8309C29.1352 12.6148 29.3911 12.7254 29.5985 12.9467C29.8198 13.1542 29.9305 13.4101 29.9305 13.7144C29.9305 14.0187 29.8198 14.2815 29.5985 14.5028C29.3911 14.7241 29.1352 14.8347 28.8309 14.8347ZM37.8386 9.29527V9.25378C37.8386 8.65903 37.645 8.18185 37.2577 7.82224C36.8704 7.44879 36.3518 7.26207 35.7017 7.26207C34.3462 7.26207 33.5302 7.93981 33.2536 9.29527H37.8386ZM39.2909 10.8928H33.3365C33.4334 11.5705 33.7307 12.103 34.2287 12.4903C34.7404 12.8776 35.3767 13.0712 36.1374 13.0712C36.7598 13.0712 37.3407 12.9537 37.8801 12.7185C38.0876 12.6217 38.2674 12.5733 38.4196 12.5733C38.7238 12.5733 38.9728 12.7185 39.1664 13.009C39.2633 13.1611 39.3117 13.3133 39.3117 13.4654C39.3117 13.8112 39.1526 14.0809 38.8345 14.2745C37.9355 14.8001 36.9534 15.0629 35.8884 15.0629C34.3946 15.0629 33.1844 14.6134 32.2577 13.7144C31.331 12.8292 30.8677 11.6466 30.8677 10.1666C30.8677 8.76968 31.3172 7.60094 32.2162 6.66041C33.1014 5.73371 34.2978 5.27036 35.8054 5.27036C37.0503 5.27036 38.0945 5.67147 38.9382 6.47369C39.7958 7.28973 40.2245 8.334 40.2245 9.60648V10.0422C40.1554 10.6092 39.8442 10.8928 39.2909 10.8928ZM44.6942 6.51518C45.4273 5.7268 46.4024 5.3326 47.6195 5.3326C48.2973 5.3326 48.8713 5.47092 49.3415 5.74754C49.8256 6.01034 50.1576 6.36995 50.3374 6.82639C51.0981 5.83053 52.1493 5.3326 53.4909 5.3326C55.4826 5.3326 56.4785 6.46677 56.4785 8.73511V13.8389C56.4785 14.157 56.3609 14.4336 56.1258 14.6687C55.9045 14.89 55.6279 15.0007 55.2959 15.0007C54.9501 15.0007 54.6597 14.89 54.4245 14.6687C54.2032 14.4336 54.0926 14.157 54.0926 13.8389V9.35752C54.0926 8.16802 53.5601 7.57328 52.4951 7.57328C51.5822 7.57328 50.9391 7.93289 50.5656 8.65212C50.5656 8.67978 50.5656 8.79043 50.5656 8.98407C50.5794 9.16388 50.5864 9.28144 50.5864 9.33677V13.8389C50.5864 14.157 50.4688 14.4336 50.2337 14.6687C50.0124 14.89 49.7357 15.0007 49.4038 15.0007C49.058 15.0007 48.7675 14.89 48.5324 14.6687C48.3111 14.4336 48.2005 14.157 48.2005 13.8389V9.19154C48.2005 8.69361 48.0621 8.29942 47.7855 8.00896C47.5227 7.7185 47.1424 7.57328 46.6444 7.57328C45.7731 7.57328 45.123 7.90523 44.6942 8.56913V13.8389C44.6942 14.157 44.5766 14.4336 44.3415 14.6687C44.1202 14.89 43.8436 15.0007 43.5116 15.0007C43.1659 15.0007 42.8754 14.89 42.6403 14.6687C42.419 14.4336 42.3083 14.157 42.3083 13.8389V6.66041C42.3083 6.2593 42.419 5.94118 42.6403 5.70605C42.8616 5.47092 43.1589 5.35335 43.5324 5.35335C43.8643 5.35335 44.141 5.464 44.3623 5.6853C44.5836 5.89277 44.6942 6.1694 44.6942 6.51518ZM61.2877 1.47367V6.07949C61.9655 5.54007 62.7884 5.27036 63.7566 5.27036C65.1121 5.27036 66.1979 5.70605 67.0139 6.57742C67.8023 7.46263 68.1965 8.61062 68.1965 10.0214C68.1965 11.5567 67.7193 12.7808 66.7649 13.6936C65.7829 14.6065 64.4828 15.0629 62.8645 15.0629C61.8687 15.0629 60.8936 14.8831 59.9392 14.5235C59.2476 14.2469 58.9018 13.749 58.9018 13.0297V1.47367C58.9018 1.15554 59.0125 0.885834 59.2338 0.664534C59.4689 0.429401 59.7594 0.311835 60.1052 0.311835C60.4371 0.311835 60.7137 0.429401 60.935 0.664534C61.1702 0.885834 61.2877 1.15554 61.2877 1.47367ZM61.2877 8.40316V12.3658C61.7995 12.6839 62.3666 12.843 62.989 12.843C63.7774 12.843 64.4136 12.6079 64.8977 12.1376C65.3956 11.6535 65.6446 11.0034 65.6446 10.1874C65.6446 9.34368 65.4164 8.6867 64.96 8.21643C64.5035 7.74617 63.9157 7.51104 63.1965 7.51104C62.4357 7.51104 61.7995 7.80841 61.2877 8.40316ZM69.6664 12.0961C69.6664 11.1279 69.9776 10.381 70.6001 9.85544C71.2225 9.32985 72.0454 9.06706 73.0689 9.06706C73.9127 9.06706 74.618 9.26761 75.1851 9.66872V9.37826C75.1851 8.6452 75.0468 8.1127 74.7702 7.78075C74.5074 7.43496 74.0648 7.26207 73.4424 7.26207C72.8891 7.26207 72.405 7.33123 71.9901 7.46954C71.7826 7.52487 71.6236 7.55253 71.5129 7.55253C71.1395 7.55253 70.8698 7.38655 70.7038 7.0546C70.6485 6.94395 70.6208 6.81255 70.6208 6.66041C70.6208 6.24547 70.849 5.9481 71.3054 5.76829C72.0662 5.43634 72.8615 5.27036 73.6913 5.27036C74.9915 5.27036 75.9389 5.58848 76.5337 6.22472C77.1284 6.86096 77.4258 7.83607 77.4258 9.15005V13.9011C77.4258 14.1916 77.3221 14.4405 77.1146 14.648C76.9071 14.8555 76.6582 14.9592 76.3677 14.9592C76.0634 14.9592 75.8145 14.8555 75.6208 14.648C75.441 14.4405 75.3511 14.1708 75.3511 13.8389C74.7564 14.5858 73.8366 14.9592 72.5918 14.9592C71.7066 14.9592 70.9942 14.7033 70.4548 14.1916C69.9292 13.666 69.6664 12.9675 69.6664 12.0961ZM75.1851 12.0961V11.1418C74.7979 10.8375 74.2515 10.6853 73.5461 10.6853C73.1035 10.6853 72.7439 10.7891 72.4673 10.9965C72.1907 11.204 72.0523 11.4875 72.0523 11.8472C72.0523 12.1791 72.1768 12.4488 72.4258 12.6563C72.6747 12.8499 72.9929 12.9467 73.3801 12.9467C74.1824 12.9467 74.784 12.6632 75.1851 12.0961ZM81.5729 6.22472L83.4402 10.6023C83.4678 10.6715 83.62 11.121 83.8966 11.9509C83.9796 11.4391 84.0902 10.9827 84.2285 10.5816L85.6601 6.24547C85.8399 5.65072 86.241 5.35335 86.8634 5.35335C87.2369 5.35335 87.5342 5.464 87.7555 5.6853C87.9907 5.89277 88.1082 6.16248 88.1082 6.49443C88.1082 6.68807 88.0667 6.90246 87.9837 7.13759L84.9547 14.8347C84.3185 16.4806 83.7375 17.5871 83.2119 18.1542C82.7002 18.7075 82.0778 18.9841 81.3447 18.9841C80.8745 18.9841 80.4664 18.908 80.1206 18.7559C79.678 18.5623 79.4567 18.2234 79.4567 17.7393C79.4567 17.4488 79.5397 17.2068 79.7057 17.0131C79.8855 16.8333 80.1276 16.7434 80.4319 16.7434C80.4872 16.7434 80.5978 16.7504 80.7638 16.7642C80.9436 16.778 81.0543 16.7849 81.0958 16.7849H81.2202C81.7043 16.7573 82.1331 16.2732 82.5065 15.3326L82.714 14.8347L79.187 7.22058C79.0902 7.01311 79.0418 6.81255 79.0418 6.61891C79.0418 6.2593 79.1663 5.96193 79.4152 5.7268C79.678 5.47783 80.0238 5.35335 80.4526 5.35335C80.9367 5.35335 81.3101 5.64381 81.5729 6.22472ZM95.9666 9.29527V9.25378C95.9666 8.65903 95.773 8.18185 95.3857 7.82224C94.9984 7.44879 94.4798 7.26207 93.8297 7.26207C92.4742 7.26207 91.6582 7.93981 91.3815 9.29527H95.9666ZM97.4189 10.8928H91.4645C91.5614 11.5705 91.8587 12.103 92.3567 12.4903C92.8684 12.8776 93.5047 13.0712 94.2654 13.0712C94.8878 13.0712 95.4687 12.9537 96.0081 12.7185C96.2156 12.6217 96.3954 12.5733 96.5475 12.5733C96.8518 12.5733 97.1008 12.7185 97.2944 13.009C97.3913 13.1611 97.4397 13.3133 97.4397 13.4654C97.4397 13.8112 97.2806 14.0809 96.9625 14.2745C96.0634 14.8001 95.0814 15.0629 94.0164 15.0629C92.5226 15.0629 91.3124 14.6134 90.3857 13.7144C89.459 12.8292 88.9956 11.6466 88.9956 10.1666C88.9956 8.76968 89.4452 7.60094 90.3442 6.66041C91.2294 5.73371 92.4258 5.27036 93.9334 5.27036C95.1782 5.27036 96.2225 5.67147 97.0662 6.47369C97.9238 7.28973 98.3525 8.334 98.3525 9.60648V10.0422C98.2834 10.6092 97.9722 10.8928 97.4189 10.8928ZM101.709 6.22472L103.119 9.50274C103.41 10.1528 103.645 10.8582 103.825 11.6189C104.019 10.8306 104.247 10.1113 104.51 9.46125L105.879 6.10024C106.086 5.60231 106.46 5.35335 106.999 5.35335C107.317 5.35335 107.58 5.464 107.788 5.6853C108.009 5.9066 108.119 6.1694 108.119 6.47369C108.119 6.65349 108.092 6.79872 108.037 6.90937L104.924 14.1501C104.689 14.7172 104.295 15.0007 103.742 15.0007C103.202 15.0007 102.794 14.7172 102.518 14.1501L99.3435 7.19983C99.2605 7.00619 99.219 6.81255 99.219 6.61891C99.219 6.24547 99.3366 5.94118 99.5717 5.70605C99.8207 5.47092 100.146 5.35335 100.547 5.35335C101.072 5.35335 101.46 5.64381 101.709 6.22472ZM6.68771 24.76C6.23127 24.594 5.76792 24.511 5.29766 24.511C4.61992 24.511 4.01826 24.7531 3.49267 25.2372C2.96708 25.7351 2.70429 26.3783 2.70429 27.1666C2.70429 27.955 2.96708 28.5982 3.49267 29.0961C4.01826 29.594 4.6545 29.843 5.40139 29.843C5.99614 29.843 6.5079 29.7185 6.93667 29.4696C7.19946 29.3036 7.47609 29.2206 7.76655 29.2206C8.08467 29.2206 8.36129 29.3658 8.59643 29.6563C8.73474 29.8361 8.8039 30.0436 8.8039 30.2787C8.8039 30.6521 8.63792 30.9633 8.30597 31.2123C7.53142 31.7794 6.52173 32.0629 5.27691 32.0629C3.74164 32.0629 2.50373 31.6134 1.5632 30.7144C0.622673 29.8153 0.152409 28.6328 0.152409 27.1666C0.152409 25.7697 0.608842 24.6079 1.52171 23.6812C2.43458 22.7406 3.58949 22.2704 4.98645 22.2704C6.07913 22.2704 6.95742 22.4363 7.62132 22.7683C8.11925 23.0034 8.36821 23.3354 8.36821 23.7641C8.36821 23.9025 8.3198 24.0753 8.22298 24.2828C8.01551 24.6839 7.69739 24.8845 7.26862 24.8845C7.08881 24.8845 6.89518 24.843 6.68771 24.76ZM10.9237 30.6729C9.98312 29.76 9.51286 28.5913 9.51286 27.1666C9.51286 25.7559 9.98312 24.5802 10.9237 23.6397C11.8642 22.7268 13.0883 22.2704 14.5959 22.2704C16.1311 22.2704 17.3621 22.7268 18.2888 23.6397C19.2155 24.5664 19.6789 25.742 19.6789 27.1666C19.6789 28.5913 19.2155 29.76 18.2888 30.6729C17.3621 31.5996 16.1311 32.0629 14.5959 32.0629C13.0744 32.0629 11.8504 31.5996 10.9237 30.6729ZM12.7909 25.2579C12.3068 25.7559 12.0647 26.3921 12.0647 27.1666C12.0647 27.9412 12.2999 28.5844 12.7701 29.0961C13.2542 29.594 13.8628 29.843 14.5959 29.843C15.3428 29.843 15.9513 29.594 16.4216 29.0961C16.9057 28.5982 17.1477 27.955 17.1477 27.1666C17.1477 26.3921 16.9057 25.7559 16.4216 25.2579C15.9375 24.76 15.3289 24.511 14.5959 24.511C13.8766 24.511 13.275 24.76 12.7909 25.2579ZM22.9678 22.3533C23.2997 22.3533 23.5763 22.4571 23.7976 22.6646C24.0189 22.872 24.1296 23.121 24.1296 23.4114C24.8073 22.6922 25.6994 22.3326 26.8059 22.3326C29.3647 22.3326 30.6441 23.6742 30.6441 26.3575V30.8389C30.6441 31.157 30.5266 31.4336 30.2914 31.6687C30.0701 31.89 29.7935 32.0007 29.4616 32.0007C29.1158 32.0007 28.8253 31.89 28.5902 31.6687C28.3689 31.4336 28.2582 31.157 28.2582 30.8389V26.7725C28.2582 25.3063 27.5598 24.5733 26.1628 24.5733C25.4021 24.5733 24.7243 24.8706 24.1296 25.4654V30.8389C24.1296 31.157 24.012 31.4336 23.7769 31.6687C23.5556 31.89 23.279 32.0007 22.947 32.0007C22.6012 32.0007 22.3108 31.89 22.0756 31.6687C21.8543 31.4336 21.7437 31.157 21.7437 30.8389V23.6604C21.7437 23.2593 21.8543 22.9412 22.0756 22.706C22.2969 22.4709 22.5943 22.3533 22.9678 22.3533ZM32.447 30.1957C32.447 29.9467 32.5162 29.7531 32.6545 29.6148C32.862 29.3658 33.1109 29.2413 33.4014 29.2413C33.6227 29.2413 33.8509 29.3174 34.086 29.4696C34.7361 29.8707 35.4553 30.0712 36.2437 30.0712C36.6172 30.0712 36.9145 29.9952 37.1358 29.843C37.3571 29.6909 37.4678 29.4765 37.4678 29.1999C37.4678 28.7711 36.88 28.3907 35.7043 28.0588C35.234 27.9343 34.8467 27.8167 34.5425 27.7061C34.252 27.5954 33.9201 27.4364 33.5466 27.2289C33.1732 27.0076 32.8896 26.724 32.696 26.3783C32.5162 26.0186 32.4263 25.5968 32.4263 25.1127C32.4263 24.2413 32.7444 23.5498 33.3806 23.038C34.0169 22.5262 34.8398 22.2704 35.8495 22.2704C36.9422 22.2704 37.8896 22.5055 38.6919 22.9758C39.0238 23.1832 39.1898 23.4529 39.1898 23.7849C39.1898 23.9509 39.1483 24.1099 39.0653 24.2621C38.8717 24.5802 38.595 24.7393 38.2354 24.7393C38.0556 24.7393 37.8689 24.6978 37.6753 24.6148C37.122 24.3796 36.5549 24.2621 35.974 24.2621C35.6421 24.2621 35.3654 24.3451 35.1441 24.511C34.9228 24.6632 34.8122 24.8499 34.8122 25.0712C34.8122 25.2372 34.8744 25.3893 34.9989 25.5276C35.1234 25.6521 35.3032 25.7697 35.5383 25.8803C35.7873 25.9772 36.0293 26.0601 36.2645 26.1293C36.5134 26.1985 36.8177 26.2884 37.1773 26.399C37.5369 26.4958 37.8343 26.5857 38.0694 26.6687C38.595 26.8624 39.0238 27.1666 39.3558 27.5816C39.6877 27.9965 39.8537 28.4945 39.8537 29.0754C39.8537 29.9882 39.5079 30.7144 38.8163 31.2538C38.1386 31.7932 37.2257 32.0629 36.0777 32.0629C34.7638 32.0629 33.6849 31.7102 32.8412 31.0048C32.5784 30.7835 32.447 30.5138 32.447 30.1957ZM47.9207 28.7019V23.5152C47.9207 23.1971 48.0313 22.9273 48.2526 22.706C48.4878 22.4709 48.7782 22.3533 49.124 22.3533C49.456 22.3533 49.7326 22.4709 49.9539 22.706C50.189 22.9273 50.3066 23.1971 50.3066 23.5152V30.8389C50.3066 31.157 50.189 31.4336 49.9539 31.6687C49.7326 31.89 49.4491 32.0007 49.1033 32.0007C48.7575 32.0007 48.4739 31.8831 48.2526 31.648C48.0313 31.4129 47.9207 31.0947 47.9207 30.6936C47.1738 31.6065 46.1779 32.0629 44.9331 32.0629C43.9373 32.0629 43.142 31.731 42.5472 31.0671C41.9525 30.4032 41.6551 29.4488 41.6551 28.204V23.5152C41.6551 23.1971 41.7658 22.9273 41.9871 22.706C42.2222 22.4709 42.5126 22.3533 42.8584 22.3533C43.1904 22.3533 43.467 22.4709 43.6883 22.706C43.9234 22.9273 44.041 23.1971 44.041 23.5152V27.7061C44.041 29.1307 44.6358 29.843 45.8252 29.843C46.6413 29.843 47.3398 29.4626 47.9207 28.7019ZM55.3514 18.4737V28.287C55.3514 29.269 55.6418 29.76 56.2227 29.76H56.5754C56.7967 29.76 56.9558 29.7808 57.0526 29.8223C57.4399 29.9606 57.6335 30.2441 57.6335 30.6729C57.6335 31.5581 56.8797 32.0007 55.3721 32.0007C53.7677 32.0007 52.9654 31.0878 52.9654 29.2621V18.4737C52.9654 18.1555 53.0761 17.8858 53.2974 17.6645C53.5325 17.4294 53.823 17.3118 54.1688 17.3118C54.5007 17.3118 54.7774 17.4294 54.9987 17.6645C55.2338 17.8858 55.3514 18.1555 55.3514 18.4737ZM63.5221 29.7185C63.8126 29.7185 64.0408 29.8153 64.2067 30.009C64.3865 30.1888 64.4765 30.4101 64.4765 30.6729C64.4765 31.0878 64.2621 31.4059 63.8333 31.6272C63.28 31.9039 62.6231 32.0422 61.8623 32.0422C60.8526 32.0422 60.1127 31.7379 59.6424 31.1293C59.186 30.5069 58.9578 29.5595 58.9578 28.287V21.067C58.9578 20.7489 59.0684 20.4792 59.2897 20.2579C59.5248 20.0228 59.8153 19.9052 60.1611 19.9052C60.493 19.9052 60.7697 20.0228 60.991 20.2579C61.2261 20.4792 61.3437 20.7489 61.3437 21.067V22.4986H63.1901C63.5083 22.4986 63.778 22.6092 63.9993 22.8305C64.2344 23.0518 64.352 23.3146 64.352 23.6189C64.352 23.9232 64.2344 24.186 63.9993 24.4073C63.778 24.6286 63.5083 24.7393 63.1901 24.7393H61.3437V28.1418C61.3437 29.2621 61.7033 29.8223 62.4225 29.8223C62.5746 29.8223 62.7821 29.8084 63.0449 29.7808C63.3215 29.7393 63.4806 29.7185 63.5221 29.7185ZM69.0964 23.5152V30.8389C69.0964 31.157 68.9788 31.4336 68.7437 31.6687C68.5224 31.89 68.2458 32.0007 67.9138 32.0007C67.568 32.0007 67.2776 31.89 67.0424 31.6687C66.8211 31.4336 66.7105 31.157 66.7105 30.8389V23.5152C66.7105 23.1971 66.8211 22.9273 67.0424 22.706C67.2776 22.4709 67.568 22.3533 67.9138 22.3533C68.2458 22.3533 68.5224 22.4709 68.7437 22.706C68.9788 22.9273 69.0964 23.1971 69.0964 23.5152ZM67.9553 17.7475C68.3287 17.7475 68.6469 17.8789 68.9097 18.1417C69.1863 18.4045 69.3246 18.7365 69.3246 19.1376C69.3246 19.5802 69.1863 19.9398 68.9097 20.2164C68.6469 20.493 68.3287 20.6314 67.9553 20.6314C67.5265 20.6314 67.1669 20.493 66.8765 20.2164C66.5998 19.9398 66.4615 19.5802 66.4615 19.1376C66.4615 18.7226 66.5998 18.3907 66.8765 18.1417C67.1669 17.8789 67.5265 17.7475 67.9553 17.7475ZM73.3359 22.3533C73.6678 22.3533 73.9445 22.4571 74.1658 22.6646C74.3871 22.872 74.4977 23.121 74.4977 23.4114C75.1755 22.6922 76.0676 22.3326 77.1741 22.3326C79.7329 22.3326 81.0123 23.6742 81.0123 26.3575V30.8389C81.0123 31.157 80.8947 31.4336 80.6596 31.6687C80.4383 31.89 80.1617 32.0007 79.8297 32.0007C79.4839 32.0007 79.1935 31.89 78.9583 31.6687C78.737 31.4336 78.6264 31.157 78.6264 30.8389V26.7725C78.6264 25.3063 77.9279 24.5733 76.5309 24.5733C75.7702 24.5733 75.0925 24.8706 74.4977 25.4654V30.8389C74.4977 31.157 74.3802 31.4336 74.145 31.6687C73.9237 31.89 73.6471 32.0007 73.3152 32.0007C72.9694 32.0007 72.6789 31.89 72.4438 31.6687C72.2225 31.4336 72.1118 31.157 72.1118 30.8389V23.6604C72.1118 23.2593 72.2225 22.9412 72.4438 22.706C72.6651 22.4709 72.9625 22.3533 73.3359 22.3533ZM86.8401 29.5733C86.8401 29.7669 86.9023 29.926 87.0268 30.0505C88.5206 30.0505 89.7101 30.3133 90.5953 30.8389C91.4805 31.3645 91.9231 32.1183 91.9231 33.1003C91.9231 34.0823 91.4805 34.8361 90.5953 35.3617C89.7239 35.8873 88.5482 36.1501 87.0683 36.1501C85.5745 36.1501 84.3919 35.8873 83.5206 35.3617C82.6492 34.8499 82.2135 34.0961 82.2135 33.1003C82.2135 32.3672 82.4832 31.7586 83.0226 31.2745C83.562 30.7766 84.302 30.4239 85.2425 30.2165C85.1319 30.0228 85.0766 29.8084 85.0766 29.5733C85.0766 29.3105 85.1457 29.0892 85.284 28.9094C84.5925 28.6328 84.0461 28.2178 83.645 27.6646C83.2578 27.0975 83.0641 26.4682 83.0641 25.7766C83.0641 24.8084 83.4306 23.9785 84.1637 23.287C84.8829 22.6092 85.8442 22.2704 87.0475 22.2704C87.9466 22.2704 88.7419 22.4917 89.4334 22.9343L91.3214 22.5193C91.3629 22.5055 91.439 22.4986 91.5496 22.4986C91.7709 22.4986 91.9646 22.5677 92.1305 22.706C92.3104 22.8305 92.4279 23.0034 92.4832 23.2247C92.4971 23.2524 92.504 23.3146 92.504 23.4114C92.504 23.6327 92.4348 23.8333 92.2965 24.0131C92.1582 24.1929 91.9784 24.3036 91.7571 24.3451L90.782 24.5733C90.9341 24.9882 91.0102 25.3893 91.0102 25.7766C91.0102 26.7448 90.6437 27.5608 89.9106 28.2247C89.1637 28.8886 88.1817 29.2206 86.9645 29.2206C86.8816 29.3036 86.8401 29.4212 86.8401 29.5733ZM84.4334 33.1003C84.4334 33.4599 84.6616 33.7365 85.1181 33.9302C85.5883 34.1376 86.2384 34.2414 87.0683 34.2414C88.811 34.2414 89.6824 33.861 89.6824 33.1003C89.6824 32.7545 89.4542 32.4779 88.9978 32.2704C88.5413 32.0629 87.8982 31.9592 87.0683 31.9592C86.2522 31.9592 85.6091 32.0629 85.1388 32.2704C84.6685 32.4779 84.4334 32.7545 84.4334 33.1003ZM85.782 24.6563C85.4777 25.002 85.3186 25.3824 85.3048 25.7973C85.291 26.1985 85.45 26.5581 85.782 26.8762C86.1139 27.1943 86.5358 27.3326 87.0475 27.2911C87.5593 27.2911 87.9742 27.1528 88.2924 26.8762C88.6243 26.5996 88.7903 26.233 88.7903 25.7766C88.7903 25.3063 88.6312 24.926 88.3131 24.6355C87.995 24.3451 87.5731 24.1998 87.0475 24.1998C86.5081 24.1998 86.0863 24.352 85.782 24.6563Z" fill="black"/>
</svg>
